<mxfile host="app.diagrams.net" modified="2023-12-22T08:44:50.644Z" agent="Mozilla/5.0 (Windows NT 10.0; Win64; x64) AppleWebKit/537.36 (KHTML, like Gecko) Chrome/120.0.0.0 Safari/537.36" etag="RdDwvnJcqZSmCXB0ktk0" version="22.1.11" type="github">
  <diagram name="第 1 页" id="VOFWtWrbDh3IO1x44YtE">
    <mxGraphModel dx="1841" dy="514" grid="1" gridSize="10" guides="1" tooltips="1" connect="1" arrows="1" fold="1" page="1" pageScale="1" pageWidth="827" pageHeight="1169" math="0" shadow="0">
      <root>
        <mxCell id="0" />
        <mxCell id="1" parent="0" />
        <mxCell id="ib5w88bZWQ8hYoLADhAZ-1" value="&lt;font style=&quot;font-size: 18px;&quot;&gt;事实表&lt;/font&gt;" style="rounded=0;whiteSpace=wrap;html=1;" vertex="1" parent="1">
          <mxGeometry x="-80" y="220" width="140" height="70" as="geometry" />
        </mxCell>
        <mxCell id="ib5w88bZWQ8hYoLADhAZ-2" value="" style="rounded=1;whiteSpace=wrap;html=1;" vertex="1" parent="1">
          <mxGeometry x="200" y="160" width="170" height="197.5" as="geometry" />
        </mxCell>
        <mxCell id="ib5w88bZWQ8hYoLADhAZ-3" value="&lt;font style=&quot;font-size: 18px;&quot;&gt;维度表 A&lt;/font&gt;" style="rounded=0;whiteSpace=wrap;html=1;" vertex="1" parent="1">
          <mxGeometry x="530" y="130" width="140" height="70" as="geometry" />
        </mxCell>
        <mxCell id="ib5w88bZWQ8hYoLADhAZ-4" value="&lt;font style=&quot;font-size: 18px;&quot;&gt;维度表 B&lt;/font&gt;" style="rounded=0;whiteSpace=wrap;html=1;" vertex="1" parent="1">
          <mxGeometry x="530" y="230" width="140" height="70" as="geometry" />
        </mxCell>
        <mxCell id="ib5w88bZWQ8hYoLADhAZ-5" value="&lt;font style=&quot;font-size: 18px;&quot;&gt;维度表 C&lt;/font&gt;" style="rounded=0;whiteSpace=wrap;html=1;" vertex="1" parent="1">
          <mxGeometry x="530" y="330" width="140" height="70" as="geometry" />
        </mxCell>
        <mxCell id="ib5w88bZWQ8hYoLADhAZ-10" value="&lt;font style=&quot;font-size: 18px;&quot;&gt;聚合&lt;/font&gt;" style="text;html=1;strokeColor=none;fillColor=none;align=center;verticalAlign=middle;whiteSpace=wrap;rounded=0;" vertex="1" parent="1">
          <mxGeometry x="190" y="70" width="70" height="40" as="geometry" />
        </mxCell>
      </root>
    </mxGraphModel>
  </diagram>
</mxfile>
